<?xml version="1.0" encoding="utf-8"?>
<!-- Generator: Adobe Illustrator 27.0.0, SVG Export Plug-In . SVG Version: 6.00 Build 0)  -->
<svg version="1.1" id="Calque_1" xmlns="http://www.w3.org/2000/svg" xmlns:xlink="http://www.w3.org/1999/xlink" x="0px" y="0px"
	 viewBox="0 0 280 280" style="enable-background:new 0 0 280 280;" xml:space="preserve">
<style type="text/css">
	.st0{fill:#56A9A5;}
</style>
<g>
	<g>
		<path class="st0" d="M257.89,170c-1.64-5.23-3.08-10.74-5.88-15.48c-0.63-1.06-1.33-2.12-2.31-2.86
			c-3.34-2.52-8.61,2.81-11.36,4.67c-3.26,2.2,0.38,8.53,2.25,12.26c0.98,1.96,1.41,4.62,1.27,6.8c-0.29,4.89-6.27,6.27-10.01,6.61
			c-1.42,0.13-3.38-0.44-4.65-1.31c-0.25-0.17-2.08-2.25-1.53-2.51c1.64-0.79,3.06-1.33,4.43-1.69c1.33-0.35,2.24-1.56,2.18-2.94
			c-0.06-1.39-0.22-2.94-0.53-4.6c-0.35-1.85-0.82-3.49-1.33-4.91c-0.41-1.17-1.76-1.93-2.98-1.69c-4.85,0.95-7.48,1.02-13.19,0.33
			l-14.79-1.23c-5.81-0.55-8.6-0.5-10.9-0.05c-8.12,1.61-12.54,7.66-12.39,16.57c0.05,2.85,2.81,4.89,5.6,4.34
			c1.99-0.4,4.61-0.2,6.05-1.91c1.3-1.55,1.58-3.01,3.83-3.45c1.88-0.37,3.16-0.37,6.16-0.2c2.16,0.12,4.32,0.24,6.48,0.33
			c0.21,0.01,0.43,0.02,0.59,0.15c0.2,0.16,0.25,0.45,0.18,0.7c-0.21,0.71-22.23,12.44-22.23,12.44c-1.15,0.62-1.75,1.92-1.5,3.2
			l1.08,5.46c0.28,1.4,0.33,3.02,1.65,3.89c1.09,0.72,2.31,0.43,3.5,0.2c5.48-1.09,7.2,0.27,7.47,1.66
			c0.6,3.03-6.21,5.99-18.24,8.38c-12.03,2.39-18.57-0.56-20.19-8.74c-0.36-1.81-0.61-3.95-0.73-6.33
			c-0.08-1.55-1.54-2.66-3.06-2.36l-6.34,1.26c-2.24,0.44-3.78,2.48-3.65,4.76c0.17,3.05,0.51,6.03,1.06,8.76
			c3.32,16.69,14.69,23.02,34.82,19.02c19.39-3.85,30.09-14.65,27.8-26.19c-0.55-2.76-2.21-5.57-5.15-7.13
			c-0.95-0.5-1.06-1.8-0.17-2.4c0,0,10.68-7.27,12.42-8.44c1.35-0.91,3.18-0.31,3.75,1.21c2.96,8.03,9.16,11.8,18.17,10.06
			c7.44-1.48,17-3.2,21.41-10.11c2.29-3.58,2.69-8.12,1.98-12.31C258.68,172.78,258.32,171.38,257.89,170"/>
	</g>
	<g>
		<path class="st0" d="M220.39,198.24c0.52,0.96,0.24,2.15-0.65,2.78c-0.7,0.5-1.42,0.95-2.16,1.35s-1.42,0.69-2.04,0.88
			c-0.62,0.19-1.2,0.24-1.74,0.16s-1.05-0.33-1.52-0.74c-0.47-0.41-0.93-1.03-1.38-1.87l-1.35-2.51c-0.51-0.95-0.25-2.13,0.62-2.78
			l0.04-0.03c0.71-0.53,1.42-0.98,2.13-1.36c0.74-0.4,1.42-0.69,2.04-0.88c0.62-0.19,1.2-0.24,1.74-0.16
			c0.54,0.08,1.05,0.33,1.52,0.74c0.47,0.41,0.93,1.03,1.38,1.87L220.39,198.24z"/>
	</g>
	<g>
		<path class="st0" d="M259.53,202.82c0.52,0.96,0.24,2.15-0.65,2.78c-0.7,0.5-1.42,0.95-2.16,1.35s-1.42,0.69-2.04,0.88
			c-0.62,0.19-1.2,0.24-1.74,0.16s-1.05-0.33-1.52-0.74c-0.47-0.41-0.93-1.03-1.38-1.87l-1.35-2.51c-0.51-0.95-0.25-2.13,0.62-2.78
			l0.04-0.03c0.71-0.53,1.42-0.98,2.13-1.36c0.74-0.4,1.42-0.69,2.04-0.88c0.62-0.19,1.2-0.24,1.75-0.16
			c0.54,0.08,1.04,0.33,1.51,0.74c0.47,0.41,0.93,1.03,1.38,1.87L259.53,202.82z"/>
	</g>
	<g>
		<path class="st0" d="M246.96,204.62c0.52,0.96,0.24,2.15-0.65,2.78c-0.7,0.5-1.42,0.95-2.16,1.35s-1.42,0.69-2.04,0.88
			c-0.62,0.19-1.2,0.24-1.74,0.16s-1.05-0.33-1.52-0.74c-0.47-0.41-0.93-1.03-1.38-1.87l-1.35-2.51c-0.51-0.95-0.25-2.13,0.62-2.78
			l0.04-0.03c0.71-0.53,1.42-0.98,2.13-1.36c0.74-0.4,1.42-0.69,2.04-0.88c0.62-0.19,1.2-0.24,1.74-0.16
			c0.54,0.08,1.05,0.33,1.52,0.74c0.47,0.41,0.93,1.03,1.38,1.87L246.96,204.62z"/>
	</g>
	<g>
		<path class="st0" d="M195.05,237c0.52,0.96,0.24,2.15-0.65,2.78c-0.7,0.5-1.42,0.95-2.16,1.35s-1.42,0.69-2.04,0.88
			c-0.62,0.19-1.2,0.24-1.74,0.16s-1.05-0.33-1.52-0.74c-0.47-0.41-0.93-1.03-1.38-1.87l-1.35-2.51c-0.51-0.95-0.25-2.13,0.62-2.78
			l0.04-0.03c0.71-0.53,1.42-0.98,2.13-1.36c0.74-0.4,1.42-0.69,2.04-0.88c0.62-0.19,1.2-0.24,1.75-0.16
			c0.54,0.08,1.04,0.33,1.51,0.74c0.47,0.41,0.93,1.03,1.38,1.87L195.05,237z"/>
	</g>
	<g>
		<path class="st0" d="M182.49,238.8c0.52,0.96,0.24,2.15-0.65,2.78c-0.7,0.5-1.42,0.95-2.16,1.35s-1.42,0.69-2.04,0.88
			c-0.62,0.19-1.2,0.24-1.74,0.16s-1.05-0.33-1.52-0.74c-0.47-0.41-0.93-1.03-1.38-1.87l-1.35-2.51c-0.51-0.95-0.25-2.13,0.62-2.78
			l0.04-0.03c0.71-0.53,1.42-0.98,2.13-1.36c0.74-0.4,1.42-0.69,2.04-0.88c0.62-0.19,1.2-0.24,1.74-0.16
			c0.54,0.08,1.05,0.33,1.52,0.74c0.47,0.41,0.93,1.03,1.38,1.87L182.49,238.8z"/>
	</g>
	<g>
		<path class="st0" d="M77.25,134.74c-3.14-1.35-6.6-2.91-10.39-4.68c-3.79-1.77-8.01-3.91-12.66-6.42
			c-4.65-2.51-9.83-5.5-15.55-8.98c-4.46-2.71-9.37-5.81-14.71-9.31c-3.22-2.1-4.53-6.13-3.21-9.74c0.18-0.48,0.37-0.98,0.58-1.47
			c1.25-2.97,3.16-5.64,5.73-8.03c3.2-2.99,6.48-4.79,9.82-5.43c3.34-0.63,7.22,0.41,11.64,3.13l46.04,27.64l0.55-0.51
			c-1.8-4.13-3.88-8.52-6.24-13.17c-2.36-4.64-4.85-9.37-7.47-14.2c-2.62-4.83-5.31-9.59-8.06-14.29c-1.62-2.76-3.26-5.46-4.91-8.1
			c-2.42-3.86-2.5-8.8,0.06-12.57c1.36-2,2.97-3.87,4.84-5.61c3.2-2.99,6.5-4.77,9.88-5.36c3.38-0.59,6.66,0.81,9.81,4.2
			c2.3,2.47,4.65,5.63,7.04,9.47c2.39,3.85,4.76,8.09,7.12,12.73c2.36,4.64,4.64,9.57,6.85,14.78c2.21,5.22,4.28,10.42,6.23,15.62
			c4.09,10.95,7.63,22.1,10.42,33.45c2.79,11.34,6.34,23.02,2.73,34.28c-1.97,6.16-6.54,10.61-12.93,11.66
			c-6.17,1.02-13.28,0.95-18.84-2.29c-2.03-1.19-3.06-3.52-2.75-5.85c0.53-3.94,0.92-8.03,1.17-12.27c0.32-5.52,0.31-10.85-0.04-16
			c-1.98,1-4.65,1.48-8.02,1.45C88.62,138.81,83.71,137.45,77.25,134.74"/>
	</g>
	<g>
		<path class="st0" d="M141.91,53.62c1.08,3.06-0.28,6.45-3.18,7.92c-2.31,1.16-4.64,2.16-7,3c-2.36,0.84-4.51,1.39-6.43,1.67
			c-1.92,0.28-3.66,0.17-5.22-0.32c-1.56-0.49-2.94-1.44-4.13-2.87c-1.2-1.42-2.27-3.47-3.21-6.14l-2.84-8.03
			c-1.07-3.04,0.24-6.41,3.09-7.91l0.15-0.08c2.34-1.23,4.63-2.25,6.89-3.05c2.36-0.84,4.5-1.39,6.43-1.67
			c1.92-0.27,3.67-0.17,5.23,0.32c1.56,0.49,2.94,1.45,4.13,2.87c1.2,1.42,2.27,3.47,3.21,6.14L141.91,53.62z"/>
	</g>
	<g>
		<path class="st0" d="M165.64,120.69c1.08,3.06-0.28,6.45-3.18,7.92c-2.31,1.16-4.64,2.16-7,3c-2.36,0.84-4.51,1.39-6.43,1.67
			c-1.92,0.28-3.66,0.17-5.22-0.32c-1.56-0.49-2.94-1.44-4.13-2.87c-1.2-1.42-2.27-3.47-3.21-6.14c-0.08-0.24-6.46-18.24-6.54-18.48
			c-0.15-0.44-8.76-24.76-8.92-25.2c-0.17-0.48-0.77-2.36,0.07-4.53c0.55-1.41,1.59-2.63,3.02-3.38l0.15-0.08
			c2.34-1.23,4.63-2.25,6.89-3.05c2.36-0.84,4.51-1.39,6.43-1.67c1.92-0.27,3.67-0.17,5.23,0.32c1.56,0.49,2.94,1.45,4.13,2.87
			c1.2,1.42,2.27,3.47,3.21,6.14L165.64,120.69z"/>
	</g>
	<g>
		<path class="st0" d="M159.47,82.46c-1.08-3.14,0.31-6.59,3.27-8.11c2.35-1.21,4.65-2.2,6.92-2.98c2.37-0.81,4.52-1.35,6.44-1.6
			c1.93-0.26,3.67-0.13,5.22,0.37c1.55,0.5,2.92,1.48,4.11,2.91c1.18,1.44,2.23,3.5,3.15,6.17l13.09,34.06
			c3.14,9.17,2.87,16.95-0.81,23.33c-3.68,6.38-10.63,11.33-20.83,14.82c-5.36,1.84-9.97,2.49-13.83,1.97
			c-2.76-0.32-5.01-1.28-6.77-2.86c-3.04-2.75-6.1-8.59-4.24-12.71c1.73-3.85,6.56-4.49,10.11-5.71c4.02-1.38,6.56-3.37,7.62-5.98
			c1.06-2.61,0.92-5.87-0.42-9.79L159.47,82.46z"/>
	</g>
	<g>
		<path class="st0" d="M222.46,67.99c1.08,3.06-0.28,6.45-3.18,7.92c-2.31,1.16-4.64,2.16-7,3c-2.36,0.84-4.51,1.39-6.43,1.67
			c-1.92,0.28-3.66,0.17-5.22-0.32c-1.56-0.49-2.94-1.44-4.13-2.87c-1.2-1.42-2.27-3.47-3.22-6.14l-2.84-8.03
			c-1.08-3.04,0.24-6.41,3.09-7.91l0.15-0.08c2.34-1.23,4.63-2.25,6.89-3.05c2.36-0.84,4.5-1.39,6.43-1.67
			c1.92-0.27,3.66-0.17,5.23,0.32c1.56,0.49,2.94,1.45,4.13,2.87c1.2,1.42,2.27,3.47,3.21,6.14L222.46,67.99z"/>
	</g>
	<g>
		<path class="st0" d="M180.31,56.39c1.08,3.06-0.28,6.45-3.18,7.92c-2.31,1.16-4.64,2.16-7,3c-2.36,0.84-4.51,1.39-6.43,1.67
			c-1.92,0.28-3.66,0.17-5.22-0.32c-1.56-0.49-2.94-1.44-4.13-2.87c-1.2-1.42-2.27-3.47-3.22-6.14l-2.84-8.03
			c-1.08-3.04,0.24-6.41,3.09-7.91l0.15-0.08c2.34-1.23,4.63-2.25,6.89-3.05c2.36-0.84,4.5-1.39,6.43-1.67
			c1.92-0.27,3.66-0.17,5.23,0.32c1.56,0.49,2.94,1.45,4.13,2.87c1.2,1.42,2.27,3.47,3.21,6.14L180.31,56.39z"/>
	</g>
	<g>
		<path class="st0" d="M246.19,135.06c1.08,3.06-0.28,6.45-3.18,7.92c-2.31,1.16-4.64,2.16-7,3c-2.36,0.84-4.51,1.39-6.43,1.67
			c-1.92,0.28-3.66,0.17-5.22-0.32c-1.56-0.49-2.94-1.44-4.13-2.87c-1.2-1.42-2.27-3.47-3.22-6.14l-15.46-43.68
			c-1.08-3.04,0.24-6.41,3.09-7.91l0.15-0.08c2.34-1.23,4.63-2.25,6.89-3.05c2.36-0.84,4.51-1.39,6.43-1.67
			c1.92-0.27,3.67-0.17,5.22,0.32c1.56,0.49,2.94,1.45,4.14,2.87c1.2,1.42,2.27,3.47,3.21,6.14L246.19,135.06z"/>
	</g>
</g>
</svg>
